<svg xmlns="http://www.w3.org/2000/svg" width="125" height="36" viewBox="0 0 125 36">
  <defs>
    <style>
      .cls-1 {
        fill: #fff;
        fill-rule: evenodd;
      }
    </style>
  </defs>
  <path class="cls-1" d="M4.289,0.263h0.44q8.847,17.249,11.136,21.794L17.78,25.87l1.012,2.106h0.044q0.44-1.042.946-2.062,0.594-1.242,1.937-3.814L33.207,0.263h0.462L37.587,36h-2a2.474,2.474,0,0,1-2.454-2.226L31.909,22.1q-0.748-7.294-.858-10.664H30.962q-1.012,2.417-2.333,5.077-0.572,1.131-1.276,2.527L25.967,21.7Q24.91,23.808,23,27.444l-4.16,7.782H18.352L14.258,27.4q-1.915-3.68-2.949-5.742-0.792-1.6-1.343-2.727Q9.241,17.489,8.69,16.292q-1.32-2.815-2.113-4.944H6.49q-0.154,2.351-.33,4.59Q5.917,18.509,5.543,22.1L4.286,33.784A2.475,2.475,0,0,1,1.832,36H0ZM76.7,32.321L89.516,32.3a2.248,2.248,0,0,1,1.766.855L93.53,36h-23.7V35.913L87.236,4.12H74.916a2.248,2.248,0,0,1-1.805-.912l-1.94-2.614H93.816V0.684Zm26.8-6.274q-1.035,2.55-1.893,4.656l-1.491,3.739A2.468,2.468,0,0,1,97.826,36H95.159l3.235-7.8q0.7-1.684,1.5-3.614L110.08,0h0.528L125,36h-2.916a2.469,2.469,0,0,1-2.3-1.579l-3.259-8.376H103.5Zm11.664-3.525V22.389l-3.72-9.866q-0.858-2.306-1.232-3.591h-0.088q-0.4,1.241-1.3,3.591l-3.939,10h10.278ZM47.087,26.047Q46.052,28.6,45.194,30.7L43.7,34.442A2.468,2.468,0,0,1,41.413,36H38.746l3.235-7.8q0.7-1.684,1.5-3.614L53.667,0H54.2L68.588,36H65.672a2.469,2.469,0,0,1-2.3-1.579l-3.259-8.376H47.087Zm11.664-3.525V22.389l-3.719-9.866Q54.174,10.217,53.8,8.931H53.711q-0.4,1.241-1.3,3.591l-3.939,10H58.751Z"/>
</svg>
