<svg xmlns="http://www.w3.org/2000/svg" width="144" height="42" viewBox="0 0 144 42">
  <defs>
    <style>
      .cls-1 {
        fill: #282828;
        fill-rule: evenodd;
      }
    </style>
  </defs>
  <path class="cls-1" d="M4.941,0.306H5.448Q15.64,20.431,18.277,25.733l2.206,4.449,1.166,2.457H21.7q0.507-1.215,1.09-2.406,0.685-1.449,2.231-4.449L38.255,0.306h0.532L43.3,42H40.992a2.864,2.864,0,0,1-2.827-2.6L36.759,25.784q-0.862-8.51-.989-12.442h-0.1q-1.166,2.82-2.687,5.923-0.659,1.319-1.47,2.949l-1.6,3.1q-1.217,2.458-3.423,6.7L21.7,41.1H21.141l-4.716-9.131q-2.206-4.293-3.4-6.7-0.913-1.863-1.547-3.182-0.836-1.681-1.47-3.078Q8.49,15.723,7.578,13.239h-0.1Q7.3,15.981,7.1,18.594q-0.279,3-.71,7.191L4.937,39.414A2.864,2.864,0,0,1,2.111,42H0Zm83.416,37.4,14.765-.02a2.58,2.58,0,0,1,2.035,1L107.747,42h-27.3V41.9L100.5,4.807H86.3a2.579,2.579,0,0,1-2.08-1.063L81.989,0.694h26.088V0.8Zm30.875-7.32q-1.192,2.975-2.181,5.432l-1.717,4.362A2.844,2.844,0,0,1,112.7,42h-3.073l3.727-9.1q0.812-1.965,1.724-4.216L126.812,0h0.609L144,42h-3.359A2.844,2.844,0,0,1,138,40.16l-3.754-9.772H119.232Zm13.437-4.113V26.121l-4.285-11.51q-0.988-2.69-1.42-4.19h-0.1q-0.456,1.449-1.5,4.19l-4.538,11.665h11.84ZM54.244,30.389q-1.192,2.975-2.181,5.432l-1.717,4.362A2.844,2.844,0,0,1,47.708,42H44.635l3.727-9.1q0.811-1.965,1.724-4.216L61.825,0h0.608L79.014,42H75.655a2.845,2.845,0,0,1-2.647-1.842l-3.754-9.772H54.244Zm13.437-4.113V26.121L63.4,14.61q-0.989-2.69-1.42-4.19h-0.1q-0.456,1.449-1.5,4.19L55.842,26.276h11.84Z"/>
</svg>
