<svg xmlns="http://www.w3.org/2000/svg" width="145" height="59" viewBox="0 0 145 59">
  <defs>
    <style>
      .cls-1 {
        fill: #282828;
        fill-rule: evenodd;
      }
    </style>
  </defs>
  <path class="cls-1" d="M4.978,1.482H5.488Q15.75,21.515,18.405,26.793l2.221,4.429L21.8,33.667h0.051q0.51-1.21,1.1-2.395,0.689-1.441,2.247-4.428L38.522,1.482h0.536L43.6,42.988H41.278A2.872,2.872,0,0,1,38.431,40.4L37.016,26.844q-0.868-8.471-1-12.385h-0.1q-1.175,2.807-2.706,5.9-0.664,1.313-1.481,2.935l-1.608,3.09q-1.225,2.446-3.446,6.668l-4.825,9.038H21.29L16.542,33q-2.221-4.274-3.421-6.668-0.919-1.854-1.557-3.167-0.842-1.674-1.481-3.064-1.532-3.27-2.451-5.742H7.53q-0.179,2.73-.383,5.33-0.281,2.987-.715,7.158L4.974,40.412a2.872,2.872,0,0,1-2.846,2.576H0ZM88.971,38.714l14.867-.02a2.607,2.607,0,0,1,2.049.994l2.608,3.3H81v-0.1L101.194,5.962H86.9A2.607,2.607,0,0,1,84.808,4.9l-2.25-3.036h26.269v0.1Zm31.088-7.287q-1.2,2.961-2.195,5.407l-1.73,4.343a2.862,2.862,0,0,1-2.656,1.811h-3.094l3.752-9.063q0.817-1.956,1.736-4.2l11.82-28.555h0.613L145,42.988h-3.383a2.863,2.863,0,0,1-2.665-1.834l-3.78-9.727H120.059Zm13.53-4.094V27.179l-4.314-11.458q-1-2.677-1.43-4.171h-0.1q-0.459,1.443-1.506,4.171l-4.57,11.613h11.922ZM54.622,31.427q-1.2,2.961-2.2,5.407L50.7,41.177a2.863,2.863,0,0,1-2.657,1.811H44.947L48.7,33.925q0.817-1.956,1.736-4.2L62.255,1.173h0.612l16.7,41.815H76.18a2.863,2.863,0,0,1-2.665-1.834l-3.78-9.727H54.622Zm13.53-4.094V27.179L63.838,15.721q-1-2.677-1.429-4.171h-0.1q-0.459,1.443-1.506,4.171L56.23,27.334H68.152ZM1.4,50.825H1.5q2.065,4.031,2.6,5.093l0.447,0.891L4.782,57.3h0.01q0.1-.243.221-0.482,0.139-.29.452-0.891l2.681-5.1H8.255l0.914,8.352H8.183L7.844,55.929q-0.175-1.7-.2-2.492H7.623Q7.387,54,7.079,54.623l-0.3.591-0.324.622q-0.247.492-.694,1.342L4.793,59H4.679L3.724,57.167q-0.447-.86-0.688-1.342-0.185-.373-0.313-0.637-0.17-.337-0.3-0.617-0.308-.658-0.493-1.155H1.911q-0.036.549-.077,1.072-0.057.6-.144,1.44L1.34,59.177H0.4Zm13.286,6.026q-0.241.6-.442,1.088l-0.334.813-0.041.1c-0.007.024-.017,0.053-0.031,0.088l-0.087.233H12.736l0.755-1.824q0.164-.393.349-0.844l2.378-5.746h0.123l3.36,8.414H18.628l-0.051-.166-0.853-2.16H14.683Zm2.723-.824V56L16.538,53.69q-0.2-.539-0.288-0.84H16.229q-0.093.29-.3,0.84l-0.919,2.337h2.4ZM23.742,50.9h0.976v3.746L27.4,51.312l0.3-.409h1.145v0.02l-0.74.922-2.476,2.99,2.892,3.513L29.074,59c0.065,0.076.111,0.128,0.139,0.155v0.021H27.969L27.014,57.99l-2.3-2.782v3.969H23.742V50.9Zm9.4,0h3.714v0.865H34.12V54.53h2.527v0.85H34.12V58.3h2.851v0.881H33.144V50.9Zm15.569,5.948q-0.242.6-.442,1.088l-0.334.813-0.041.1c-0.007.024-.017,0.053-0.031,0.088l-0.087.233H46.767l0.755-1.824q0.164-.393.349-0.844l2.378-5.746h0.123l3.36,8.414H52.659l-0.051-.166-0.853-2.16H48.713Zm2.723-.824V56L50.568,53.69q-0.2-.539-0.288-0.84H50.26q-0.092.29-.3,0.84l-0.919,2.337h2.4Zm8.36-.477H57.238V54.794H59.8V55.55Zm6.726-.089q-0.164.306-.385,0.694l-0.8,1.425-0.4.7-0.01.031h3.986v0.86H63.389V59.157L64.406,57.3l1.931-3.559,1.115-2.016H63.7V50.9h5.286v0.02l-0.935,1.741q-0.257.471-.473,0.87Q67.329,54,67.1,54.4Zm14.084,1.389q-0.242.6-.442,1.088l-0.334.813-0.041.1a0.906,0.906,0,0,1-.031.088l-0.087.233H78.66l0.755-1.824q0.164-.393.349-0.844l2.378-5.746h0.123l3.36,8.414H84.552L84.5,59.011l-0.853-2.16H80.607Zm2.723-.824V56L82.461,53.69q-0.2-.539-0.288-0.84H82.153q-0.093.29-.3,0.84L80.93,56.027h2.4Zm6.875-5.2h0.1q2.065,4.031,2.6,5.093l0.447,0.891L93.59,57.3H93.6q0.1-.243.221-0.482,0.139-.29.452-0.891l2.681-5.1h0.108l0.915,8.352H96.99l-0.339-3.249q-0.175-1.7-.2-2.492H96.43q-0.236.565-.544,1.187l-0.3.591-0.324.622q-0.247.492-.694,1.342L93.6,59H93.487l-0.956-1.829q-0.447-.86-0.689-1.342-0.184-.373-0.313-0.637-0.17-.337-0.3-0.617-0.308-.658-0.493-1.155H90.718q-0.036.549-.077,1.072-0.057.6-.144,1.44l-0.349,3.249H89.2Zm13.287,6.026q-0.242.6-.442,1.088l-0.334.813c-0.014.034-.028,0.069-0.041,0.1a0.923,0.923,0,0,1-.031.088l-0.087.233h-1.012l0.755-1.824c0.109-.262.226-0.544,0.349-0.844l2.379-5.746h0.123l3.359,8.414h-1.073l-0.052-.166-0.852-2.16h-3.041Zm2.722-.824V56l-0.868-2.306c-0.134-.359-0.229-0.639-0.288-0.84h-0.02q-0.093.29-.3,0.84l-0.92,2.337h2.4Zm8.735-.565q-0.165.306-.385,0.694l-0.8,1.425-0.4.7-0.01.031h3.986v0.86h-5.533V59.157l1.018-1.855,1.931-3.559,1.115-2.016h-3.75V50.9h5.286v0.02l-0.935,1.741q-0.256.471-.473,0.87-0.252.462-.478,0.865Zm7.8,3.715h-0.976V50.9h0.976v8.274Zm11.206,0.1h-0.118l-4.649-5.445q-0.32-.378-0.653-0.813h-0.02q0.01,0.285.01,0.767v5.388h-0.9V50.784h0.1l4.419,5.207,0.888,1.072h0.021q-0.011-.31-0.011-0.8V50.9h0.915v8.378Zm4.4-4.274a3.984,3.984,0,0,1,1.305-3.109,4.588,4.588,0,0,1,3.184-1.124,9.2,9.2,0,0,1,1.095.062q0.528,0.1.8,0.171c0,0.1-.007.193-0.01,0.29,0,0.072-.007.152-0.011,0.238l-0.01.414h-0.031a3.3,3.3,0,0,0-.452-0.134,5.694,5.694,0,0,0-.585-0.1,5.51,5.51,0,0,0-.7-0.047,3.584,3.584,0,0,0-2.548.9,3.212,3.212,0,0,0-.986,2.471,3.326,3.326,0,0,0,.919,2.44,3.221,3.221,0,0,0,2.384.922,4.623,4.623,0,0,0,1.135-.125V55.41h0.982v3.554a6.452,6.452,0,0,1-2.158.332,4.263,4.263,0,0,1-3.072-1.139,4.119,4.119,0,0,1-1.243-3.14v-0.01Z"/>
</svg>
